<svg xmlns="http://www.w3.org/2000/svg" xml:space="preserve" style="enable-background:new 0 0 332.2 18" viewBox="0 0 332.2 18"><path d="M321.9 9V3.3h5.2c1.1 0 1.6.5 1.6 1.6v2.5c0 1.1-.5 1.6-1.6 1.6h-5.2zm-3.5 9h3.5v-5.9h5.7c2.9 0 4.6-1.6 4.6-4.6v-3c0-2.9-1.6-4.6-4.6-4.6h-9.2V18zm-17.1 0h5.1c2.9 0 4.6-1.6 4.6-4.6V.1h-3.5v13.1c0 1.1-.5 1.6-1.6 1.6h-4c-1.1 0-1.6-.5-1.6-1.6V.1h-3.5v13.3c-.1 3 1.5 4.6 4.5 4.6zM280 14.9c-1.1 0-1.6-.5-1.6-1.6V4.9c0-1.1.5-1.6 1.6-1.6h4.3c1.1 0 1.6.5 1.6 1.6v8.3c0 1.1-.5 1.6-1.6 1.6H280zm-.5 3.1h5.3c2.9 0 4.6-1.6 4.6-4.6V4.7c0-2.9-1.6-4.6-4.6-4.6h-5.3c-2.9 0-4.6 1.6-4.6 4.6v8.8c0 2.9 1.6 4.5 4.6 4.5zm-22.4-9.5V3.3h5.5c1.1 0 1.6.5 1.6 1.6v2c0 1.1-.5 1.6-1.6 1.6h-5.5zm-3.4 9.5h3.5v-6.3h2.8l4.4 6.3h4l-4.6-6.4c2.5-.2 3.8-1.8 3.8-4.6V4.6c0-2.9-1.6-4.6-4.6-4.6h-9.4v18zm-17.3 0h5.3c2.9 0 4.6-1.6 4.6-4.6v-5h-6.5v3.1h3.1v1.6c0 1.1-.5 1.6-1.6 1.6H237c-1.1 0-1.6-.5-1.6-1.6V4.9c0-1.1.5-1.6 1.6-1.6h4.3c1.1 0 1.6.5 1.6 1.6v.3h3.5v-.6c0-2.9-1.6-4.6-4.6-4.6h-5.3c-2.9 0-4.6 1.6-4.6 4.6v8.8c0 3 1.5 4.6 4.5 4.6zm-39.7 0h3.5V5.9L208 18h3.7V.1h-3.5v12.1L200.4.1h-3.7V18zm-20 0h12.6v-3.1h-9.1v-4.3h8V7.4h-8v-4h9.1V.2h-12.6V18zm-17.4 0h5.3c2.9 0 4.6-1.6 4.6-4.6v-5h-6.5v3.1h3.1v1.6c0 1.1-.5 1.6-1.6 1.6h-4.3c-1.1 0-1.6-.5-1.6-1.6V4.9c0-1.1.5-1.6 1.6-1.6h4.3c1.1 0 1.6.5 1.6 1.6v.3h3.5v-.6c0-2.9-1.6-4.6-4.6-4.6h-5.3c-2.9 0-4.6 1.6-4.6 4.6v8.8c0 3 1.6 4.6 4.5 4.6zm-21.7-6.7 2.6-7.8 2.6 7.8h-5.2zm-5.9 6.7h3.8l1.2-3.6h7.3l1.2 3.6h3.8L142.9.1h-5L131.7 18zm-44.9 0h5.7c2.6 0 4-1.4 4-4v-2.3c0-2.4-1.2-3.5-3.6-3.9l-5.1-.9c-1-.1-1.3-.5-1.3-1.3v-1c0-.9.4-1.3 1.3-1.3h4c.9 0 1.3.4 1.3 1.3V5h3.5V4c0-2.6-1.4-4-4-4h-5.4c-2.6 0-4 1.4-4 4v2.2c0 2.4 1.2 3.6 3.6 3.9l5.1.9c1 .1 1.4.5 1.4 1.3v1.3c0 .9-.4 1.3-1.3 1.3h-4.2c-.9 0-1.3-.4-1.3-1.3V13h-3.7v1.1c0 2.5 1.4 3.9 4 3.9zm-24.7 0h3.4v-7.5h1.8l5.4 7.5h4.1l-6.7-9L76.7.1h-4.1l-5.3 7.4h-1.8V.1H62V18h.1zm-17.6 0h11.1v-3.1h-7.7V.1h-3.5V18h.1zm-16.8-3.1c-1.1 0-1.6-.5-1.6-1.6V4.9c0-1.1.5-1.6 1.6-1.6H32c1.1 0 1.6.5 1.6 1.6v8.3c0 1.1-.5 1.6-1.6 1.6h-4.3zm-.6 3.1h5.3c2.9 0 4.6-1.6 4.6-4.6V4.7C37 1.8 35.4.1 32.4.1h-5.3c-2.9 0-4.6 1.6-4.6 4.6v8.8c.1 2.9 1.7 4.5 4.6 4.5zM6 18h5L17.1.1h-3.8L8.5 14.3 3.8.1H0L6 18zm101.2 0h4.3L115 4.8l3.5 13.2h4.3L127.5.1h-3.7l-3.3 13.3L117.1.1h-4.3l-3.4 13.3L106.1.1h-3.7l4.8 17.9z" style="fill:#fff"/></svg>